<svg width="100%" height="100%" viewBox="0 0 1440 560" xmlns="http://www.w3.org/2000/svg" preserveAspectRatio="none">
  <!-- Nuages -->
  <path d="M0,400 C180,350 360,450 540,400 C720,350 900,450 1080,400 C1260,350 1440,450 1440,450 L1440,560 L0,560 Z" fill="#ffffff" opacity="0.8"/>
  <path d="M0,460 C200,420 400,500 600,460 C800,420 1000,500 1200,460 C1400,420 1600,500 1800,460 L1800,560 L0,560 Z" fill="#ffffff" opacity="0.6"/>
  <path d="M0,500 C160,480 320,520 480,500 C640,480 800,520 960,500 C1120,480 1280,520 1440,500 L1440,560 L0,560 Z" fill="#ffffff" opacity="0.4"/>
</svg>